<?xml version="1.0" standalone="no"?><!DOCTYPE svg PUBLIC "-//W3C//DTD SVG 1.1//EN" "http://www.w3.org/Graphics/SVG/1.1/DTD/svg11.dtd"><svg t="1559533729818" class="icon" style="" viewBox="0 0 1024 1024" version="1.1" xmlns="http://www.w3.org/2000/svg" p-id="4409" xmlns:xlink="http://www.w3.org/1999/xlink" width="200" height="200"><defs><style type="text/css"></style></defs><path d="M512 53.44C246.912 53.44 32 267.264 32 531.072s214.912 477.696 480 477.696c265.088 0 480-213.888 480-477.696S777.088 53.44 512 53.44z m0 895.744a418.048 418.048 0 1 1 0-836.16 418.048 418.048 0 0 1 0 836.16z m175.168-686.912a31.04 31.04 0 0 0-43.84 0L511.424 394.176 380.672 263.424a31.04 31.04 0 0 0-43.84 0 31.04 31.04 0 0 0 0 43.776l116.608 116.544H372.672a31.04 31.04 0 0 0-30.976 30.976c0 17.024 13.888 30.976 30.976 30.976h108.352v70.272H372.672a31.04 31.04 0 0 0-30.976 30.976c0 17.024 13.888 30.912 30.976 30.912h108.352v160.128c0 17.024 13.952 30.976 30.976 30.976a31.04 31.04 0 0 0 30.976-30.976V617.856h108.352a31.04 31.04 0 0 0 30.976-30.912 31.04 31.04 0 0 0-30.976-30.976H542.976V485.696h108.352a31.04 31.04 0 0 0 30.976-30.976 31.04 31.04 0 0 0-30.976-30.976h-81.92l117.76-117.696a31.04 31.04 0 0 0 0-43.776z" p-id="4410"></path></svg>