<?xml version="1.0" encoding="utf-8"?>
<!-- Svg Vector Icons : http://www.sfont.cn -->
<!DOCTYPE svg PUBLIC "-//W3C//DTD SVG 1.1//EN" "http://www.w3.org/Graphics/SVG/1.1/DTD/svg11.dtd">
<svg version="1.1" xmlns="http://www.w3.org/2000/svg" xmlns:xlink="http://www.w3.org/1999/xlink" x="0px" y="0px" viewBox="0 0 1000 1000" enable-background="new 0 0 1000 1000" xml:space="preserve">
<metadata> Svg Vector Icons : http://www.sfont.cn </metadata>
<g><path d="M626.7,860.5L513.9,906V622.5l51.4,20.8c1.4-6.3,3-12.6,4.9-18.7l-56.3-22.9V456.4l368.3-148.2v167.1c9.9,3.9,19.4,8.3,28.6,13.4V265.9L485.4,437.1v511.1l165.2-66.6C642.2,875.1,634.2,868,626.7,860.5z"/><path d="M10,777l425.4,171.2V437.1L10,265.9V777z M406.9,906L69.7,770.2l337.2-148.4V906z M38.6,308.3l368.3,148.2v144.3L44.7,760.2l-6.1-2.5L38.6,308.3L38.6,308.3z"/><path d="M462.2,51.8L36.7,223l420,170.5l442.3-171.2L462.2,51.8z M443.3,357.3L113,223.2l330.3-133V357.3z M462.5,82.6l357.8,139.7L462.5,360.8V82.6z"/><path d="M836.2,742.9l57.2,57.3l6.2-10.2l-55.2-55.3L836.2,742.9z"/><path d="M818.7,760.4l55.2,55.3l10.2-6.2l-57.2-57.3L818.7,760.4z"/><path d="M801.2,510.2c-104.3,0-188.8,84.5-188.8,188.8s84.5,188.8,188.8,188.8C905.5,887.8,990,803.3,990,699S905.5,510.2,801.2,510.2z M871.7,834.4c-24.3-24.3-48.6-48.6-72.8-72.9l16.9-17.4l-8.8-8.8L795.1,724l-82,87.7c0,0-14.4,1.6-22.4-6.3c-9.9-9.9-7.4-25-7.4-25l84.5-82.4l-33.1-31.5l-20.5-1.8l-19.4-30.2l8.5-8.5l8.5-8.5l8.5-8.5l30.2,19.5l1.9,21.9l32.2,31.3l22.4-21.9c-11.2-23.6-6.2-49.6,9.8-65.5c17.2-17.1,43-17.1,43-17.1l5.3,13.3l-25.8,26.1l37.3,37l25.6-25.9l13.3,5.2c0,0,0,28.4-16.6,42.8c-16.9,14.7-42.1,18.9-66.3,8.4L811,707l12,11.7l9.9,8.8l13.6-13.8c24.3,24.3,48.6,48.6,72.8,73C911.1,810.3,896.7,827.7,871.7,834.4z"/><path d="M700.9,779.6c-3.9,3.9-3.9,10.3,0.1,14.2c3.9,3.9,10.3,3.8,14.2-0.1c3.9-4,3.9-10.3-0.1-14.2C711.1,775.6,704.8,775.7,700.9,779.6z"/></g>
</svg>