<?xml version="1.0" encoding="utf-8"?>
<!-- Svg Vector Icons : http://www.sfont.cn -->
<!DOCTYPE svg PUBLIC "-//W3C//DTD SVG 1.1//EN" "http://www.w3.org/Graphics/SVG/1.1/DTD/svg11.dtd">
<svg version="1.1" xmlns="http://www.w3.org/2000/svg" xmlns:xlink="http://www.w3.org/1999/xlink" x="0px" y="0px" viewBox="0 0 1000 1000" enable-background="new 0 0 1000 1000" xml:space="preserve">
<metadata> Svg Vector Icons : http://www.sfont.cn </metadata>
<g><path d="M88.4,979.9c0,0,27.9,22,87.6,0l441.6-499.2v-9.8l-68.9-58.5h-9.8L49.2,843.9c0,0-34.9,31.8-9.8,78.4L88.4,979.9z"/><path d="M87.5,897.3c0,21.2,17.2,38.4,38.4,38.4s38.4-17.2,38.4-38.4s-17.2-38.4-38.4-38.4S87.5,876.1,87.5,897.3L87.5,897.3z"/><path d="M920.8,872.1c0,0,33.7-35.5,0-68l-235-234.8c0,0-26.5-21.7-48.6,0c-22,21.7-29.4,29.9-29.4,29.9h-10.2l-362.5-373h-9.4V138L78.5,50.2L10,127.8l88,137.7l88.6-0.4l0.4,9.4L548.8,647v10.2L529.2,677c0,0-33.1,27-0.4,58.4c32.7,31.4,235.8,244.9,235.8,244.9s27,20,48.2,0C824.5,969.2,920.8,872.1,920.8,872.1z"/><path d="M617.6,480.7h19c0,0,112.7,58.8,206.4,8.6c0,0,87.6-44.1,127.4-125.6c0,0,19.6-32.5,19.6-105.3c0,0,1.8-133.5-38.6-80.8C911,230.2,824.6,322.7,824.6,322.7l-20.8,2.5L678.2,197.7l-1.8-20.2l136-127.3c0,0,75.3-39.9-66.8-39.9c0,0-235.8,14.1-245.6,241.3c0,0-8.6,82.7,38.6,140.3l0.3,20.5L617.6,480.7z"/></g>
</svg>