<?xml version="1.0" standalone="no"?><!DOCTYPE svg PUBLIC "-//W3C//DTD SVG 1.1//EN" "http://www.w3.org/Graphics/SVG/1.1/DTD/svg11.dtd"><svg t="1559733508257" class="icon" style="" viewBox="0 0 1024 1024" version="1.1" xmlns="http://www.w3.org/2000/svg" p-id="2031" xmlns:xlink="http://www.w3.org/1999/xlink" width="200" height="200"><defs><style type="text/css"></style></defs><path d="M856.310302 681.047114c-90.533946-79.216179-90.191138-306.134329-90.174766-308.447001 0-170.742732-144.504138-228.595348-168.145581-236.911758-8.220219-40.839127-43.681872-70.152756-85.489047-70.152756-41.644469 0-77.083609 29.167297-85.444021 69.803809-167.228699 58.416458-168.999019 235.475036-168.999018 237.260705 0 238.499929-86.288249 307.189358-87.458911 308.099077-48.219211 42.617633-50.593282 101.626585-50.675146 104.123452l-0.010233 0.429789 0.061398 0.429788c12.611226 93.133144 82.901105 88.61013 88.292905 88.118944h216.343304c1.729387 46.975894 40.49325 84.660168 87.888699 84.660168 47.400566 0 86.160335-37.684274 87.889723-84.660168h214.699873c27.085892 0 48.680722-7.971555 64.181765-23.677259 25.029046-25.366737 24.834618-61.495586 24.813129-62.949704-0.001023-68.195172-46.045709-104.784508-47.774073-106.127086z m-61.331857 69.518307c4.52813 4.963035 15.889899 19.880793 15.650445 29.909193H215.415676c1.888-8.113795 6.583952-22.561855 17.011442-29.427216 1.151219-0.76748 115.715465-84.415598 121.32216-377.539612 0.210801-6.344498 6.958482-155.426909 158.448732-159.616324 0.053212-0.005117 0.599657-0.020466 1.571798-0.020467 14.871709 0 145.673777 4.451382 158.13253 158.106948-0.159636 10.788717-2.421142 265.532609 123.076107 378.587478z" p-id="2032"></path></svg>