<?xml version="1.0" standalone="no"?><!DOCTYPE svg PUBLIC "-//W3C//DTD SVG 1.1//EN" "http://www.w3.org/Graphics/SVG/1.1/DTD/svg11.dtd"><svg t="1559733622796" class="icon" style="" viewBox="0 0 1024 1024" version="1.1" xmlns="http://www.w3.org/2000/svg" p-id="2822" xmlns:xlink="http://www.w3.org/1999/xlink" width="200" height="200"><defs><style type="text/css"></style></defs><path d="M612.1 767.5h-15.3l-69.3 69.3c-4.8 4.8-11.3 7.5-18.1 7.5-6.8 0-13.3-2.7-18.1-7.5L414.6 760c-15.1-15.1-7.4-44.3 23.1-45.1 2.2-0.1 5.4 1.2 7 2.8l64.8 64.8h0.1l58.7-58.7c4.8-4.8 11.3-7.5 18.1-7.5h25.9M343.7 521.5c-28.9 0-50.5-32.2-30.8-62.6 1.7-2.6 4-4.9 6.6-6.6 30.4-19.7 62.6 1.9 62.6 30.8 0 21.2-17.3 38.4-38.4 38.4z m173.6 0c-28.9 0-50.5-32.1-30.8-62.6 1.7-2.6 4-4.9 6.6-6.6 30.4-19.7 62.6 1.9 62.6 30.8 0 21.2-17.3 38.4-38.4 38.4z m173.6 0c-28.9 0-50.5-32.2-30.8-62.6 1.7-2.6 4-4.9 6.6-6.6 30.4-19.7 62.6 1.9 62.6 30.8 0 21.2-17.3 38.4-38.4 38.4z m0 0" p-id="2823"></path><path d="M775 770.3H595c-16.6 0-30-13.4-30-30s13.4-30 30-30h180c16.5 0 30-13.5 30-30v-397c0-16.5-13.5-30-30-30H251c-16.5 0-30 13.5-30 30v397c0 16.5 13.5 30 30 30h175c16.6 0 30 13.4 30 30s-13.4 30-30 30H251c-49.6 0-90-40.4-90-90v-397c0-49.6 40.4-90 90-90h524c49.6 0 90 40.4 90 90v397c0 49.7-40.4 90-90 90z" p-id="2824"></path></svg>