<?xml version="1.0" encoding="utf-8"?>
<!-- Svg Vector Icons : http://www.sfont.cn -->
<!DOCTYPE svg PUBLIC "-//W3C//DTD SVG 1.1//EN" "http://www.w3.org/Graphics/SVG/1.1/DTD/svg11.dtd">
<svg version="1.1" xmlns="http://www.w3.org/2000/svg" xmlns:xlink="http://www.w3.org/1999/xlink" x="0px" y="0px" viewBox="0 0 1000 1000" enable-background="new 0 0 1000 1000" xml:space="preserve">
<metadata> Svg Vector Icons : http://www.sfont.cn </metadata>
<g><path d="M761.9,990c-126,0-228.1-102.1-228.1-228.1c0-126,102.1-228.1,228.1-228.1S990,635.9,990,761.9C990,887.9,887.9,990,761.9,990L761.9,990z M922.4,770.4c0-9.3-7.6-16.9-16.9-16.9H787.2V652.1c0-9.3-7.6-16.9-16.9-16.9h-16.9c-9.3,0-16.9,7.6-16.9,16.9v135.2c0,9.3,7.6,16.9,16.9,16.9h16.9h135.2c9.3,0,16.9-7.6,16.9-16.9V770.4L922.4,770.4z M505.5,618.3H195.9c-28,0-50.7,22.7-50.7,50.7v16.9c0,28,22.7,50.7,50.7,50.7h271.2c-0.4,5.6-0.9,11.2-0.9,16.9c0,73.6,31.5,139.6,81.5,185.9H145.2C70.5,939.3,10,878.8,10,804.1v-659C10,70.5,70.5,10,145.2,10h388.6v101.4c0,74.7,60.5,135.2,135.2,135.2h135.2v268.2c-26.5-9.4-54.8-14.7-84.5-14.7C629.4,500,550.4,547.3,505.5,618.3L505.5,618.3z M652.1,432.4c0-28-22.7-50.7-50.7-50.7H195.9c-28,0-50.7,22.7-50.7,50.7v16.9c0,28,22.7,50.7,50.7,50.7h405.5c28,0,50.7-22.6,50.7-50.7V432.4L652.1,432.4z M770.4,195.9H618.3c-18.7,0-33.8-15.1-33.8-33.8V10h50.7l169,152.1C804.1,180.7,789,195.9,770.4,195.9L770.4,195.9z"/></g>
</svg>