<?xml version="1.0" encoding="utf-8"?>
<!-- Svg Vector Icons : http://www.sfont.cn -->
<!DOCTYPE svg PUBLIC "-//W3C//DTD SVG 1.1//EN" "http://www.w3.org/Graphics/SVG/1.1/DTD/svg11.dtd">
<svg version="1.1" xmlns="http://www.w3.org/2000/svg" xmlns:xlink="http://www.w3.org/1999/xlink" x="0px" y="0px" viewBox="0 0 1000 1000" enable-background="new 0 0 1000 1000" xml:space="preserve">
<metadata> Svg Vector Icons : http://www.sfont.cn </metadata>
<g><path d="M867.5,990H86.6c0-30.6,0-25.2,0-49V193.8c0-23.8,22-30.6,45.9-30.6h91.9v46h-91.9v735h735v-735h-91.9v-46h91.9c23.9,0,45.9,19.1,45.9,42.9V941v3.1v46H867.5L867.5,990z M869.6,209.6C871.3,210.7,870.8,210.1,869.6,209.6L869.6,209.6z M699.1,255c-8.8,0-18,0-30.6,0H300.9c-12.5,0-15.2-3.6-15.3-15.3c0-8.3-0.3-11.9-0.5-13.3c0.1-0.5,0.3-1.1,0.5-2v-61.2c5.6-21.8,23.4-45.9,45.9-45.9h61.3c5.8,0,13.9-9.8,15.3-15.3l5.3-53C419,27.1,441,10,463.6,10h51.7c22.6,0,44.6,17.2,50.1,39l11.1,52.9c1.4,5.6,0.2,15.3,0,15.3h91.9c22.7,0,40.4,8.8,46,30.6v91.9C714.8,255,710.7,255,699.1,255L699.1,255z M561.2,163.1c-22.6,0-9.9-24.1-15.3-45.9l-16.5-59.4c-1.4-5.6-8.3-1.9-14.1-1.9h-46c-5.8,0-15.6,1.2-15.3,0l-15.3,61.2c-0.8,21.8,7.4,45.9-15.3,45.9h-91.9v46h336.9v-46L561.2,163.1L561.2,163.1z M285.1,226.4C283.6,231,284.4,223.4,285.1,226.4L285.1,226.4z M729.7,745h-444c-8.5,0-15.3-6.9-15.3-15.3v-15.3c0-8.4,6.9-15.3,15.3-15.3h444c8.5,0,15.3,6.8,15.3,15.3v15.3C745,738.1,738.1,745,729.7,745L729.7,745z M729.7,622.5h-444c-8.5,0-15.3-6.9-15.3-15.3v-15.3c0-8.5,6.9-15.3,15.3-15.3h444c8.5,0,15.3,6.9,15.3,15.3v15.3C745,615.6,738.1,622.5,729.7,622.5L729.7,622.5z M729.7,500h-444c-8.5,0-15.3-6.8-15.3-15.3v-15.3c0-8.4,6.9-15.3,15.3-15.3h444c8.5,0,15.3,6.8,15.3,15.3v15.3C745,493.2,738.1,500,729.7,500L729.7,500z"/></g>
</svg>