<?xml version="1.0" encoding="utf-8"?>
<!-- Svg Vector Icons : http://www.sfont.cn -->
<!DOCTYPE svg PUBLIC "-//W3C//DTD SVG 1.1//EN" "http://www.w3.org/Graphics/SVG/1.1/DTD/svg11.dtd">
<svg version="1.1" xmlns="http://www.w3.org/2000/svg" xmlns:xlink="http://www.w3.org/1999/xlink" x="0px" y="0px" viewBox="0 0 1000 1000" enable-background="new 0 0 1000 1000" xml:space="preserve">
<metadata> Svg Vector Icons : http://www.sfont.cn </metadata>
<g><g transform="translate(0.000000,511.000000) scale(0.100000,-0.100000)"><path d="M4135.4,4990.9c69.3-11.6,723.6-120.2,1451.8-240.4c1394-231.2,2055.1-351.4,2334.9-427.7c194.2-50.8,406.9-152.6,568.7-270.5l113.2-83.2l-13.8,191.9c-9.3,150.3-27.8,224.2-83.2,335.2c-87.8,178-277.4,362.9-457.7,448.5l-134.1,62.4l-1953.4,2.3C4664.8,5011.8,4049.9,5007.1,4135.4,4990.9z"/><path d="M2008.6,4960.9c-238.1-74-478.5-305.2-568.7-550.2C1396,4292.8,1396,4198,1396,557v-3733.5l53.2-131.8c104-258.9,404.6-504,663.5-540.9c50.9-7,1315.4-221.9,2808.8-478.5L7637.7-4790l198.8,25.4c124.8,13.9,242.7,46.2,312.1,80.9c141,71.7,319,258.9,386.1,404.6l50.9,108.7v3791.2V3412l-53.2,104c-115.6,233.5-335.2,416.1-612.6,506.3c-161.8,53.2-829.9,178-2223.9,416.1c-1874.8,321.3-3345.1,557.1-3463,554.8C2165.8,4993.3,2066.4,4977.1,2008.6,4960.9z M3310.1,3351.9l848.4-164.1v-887.7c0-487.8-6.9-887.7-16.2-887.7c-11.6,0-406.9,74-878.5,166.4l-862.3,166.4v897c0,705.1,6.9,892.3,30,885.4C2445.5,3523,2840.8,3444.4,3310.1,3351.9z M6236.8,2797.1c855.3-159.5,1257.6-245,1296.9-272.8c106.3-76.3,90.2-240.4-32.4-291.3c-71.7-30-164.1-16.2-1296.9,196.5C5534,2556.7,4974.6,2660.7,4963,2660.7c-43.9,0-134.1,115.6-134.1,173.4c0,55.5,108.7,196.5,152.6,196.5C4990.8,3030.6,5557.1,2926.6,6236.8,2797.1z M6236.8,1687.5c860-159.5,1257.6-245,1296.9-272.8c106.3-76.3,90.2-240.4-32.4-291.3c-71.7-30-164.1-16.2-1296.9,196.5C5534,1447.1,4974.6,1551.1,4963,1551.1c-43.9,0-134.1,115.6-134.1,173.4c0,55.5,108.7,196.5,152.6,196.5C4990.8,1921,5554.8,1816.9,6236.8,1687.5z"/></g></g>
</svg>