<?xml version="1.0" encoding="utf-8"?>
<!-- Svg Vector Icons : http://www.sfont.cn -->
<!DOCTYPE svg PUBLIC "-//W3C//DTD SVG 1.1//EN" "http://www.w3.org/Graphics/SVG/1.1/DTD/svg11.dtd">
<svg version="1.1" xmlns="http://www.w3.org/2000/svg" xmlns:xlink="http://www.w3.org/1999/xlink" x="0px" y="0px" viewBox="0 0 1000 1000" enable-background="new 0 0 1000 1000" xml:space="preserve">
<metadata> Svg Vector Icons : http://www.sfont.cn </metadata>
<g><path d="M479.8,96l434.8,157.3v413.2l-345,231.2L85.4,659.8V251.7L479.8,96 M478.6,15.4L10,200.4v506.3l565.4,277.9L990,706.7V200.4L478.6,15.4L478.6,15.4z"/><path d="M598.3,448.6c-2.3,0-4.6-0.4-6.8-1.3L43.4,233.6c-9.7-3.8-14.5-14.7-10.7-24.4c3.8-9.7,14.7-14.5,24.4-10.7l548.1,213.7c9.7,3.8,14.5,14.7,10.7,24.4C613,444,605.9,448.6,598.3,448.6z"/><path d="M575.4,421.3v563.3L990,706.7V201.9L575.4,421.3z"/><path d="M815,306.4L337.8,121.2l-98.7,42.6L726.9,353L815,306.4z"/><path d="M386.9,534.4v127l37.7,14.4V534.4H386.9z"/><path d="M461.4,572.4l-112.6-37.2l56.8-73.3L461.4,572.4z"/><path d="M236.2,477.2v119.5l37.7,14.4V477.2H236.2z"/><path d="M311.7,518.2l-112.6-37.2l55.8-71.3L311.7,518.2z"/><path d="M198.5,611.8v46.6l263.8,124.5v-46.6L198.5,611.8z"/></g>
</svg>